<svg fill="none" xmlns="http://www.w3.org/2000/svg" viewBox="0 0 226.51 81.18"><path d="M38.894 38.562a2.273 2.273 0 1 1-4.547 0 2.273 2.273 0 0 1 4.547 0Zm0 10.17a2.273 2.273 0 1 1-2.31-2.273 2.273 2.273 0 0 1 2.273 2.273m.037 10.17a2.273 2.273 0 1 1-4.547 0 2.273 2.273 0 0 1 4.547 0Zm0 10.169a2.273 2.273 0 1 1-2.31-2.273 2.273 2.273 0 0 1 2.273 2.273M37.568.92a.92.92 0 1 1-1.84 0 .92.92 0 0 1 1.84 0Zm.194 9.406a1.141 1.141 0 1 1-2.283 0 1.141 1.141 0 0 1 2.283 0m0 9.415a1.141 1.141 0 1 1-2.283 0 1.141 1.141 0 0 1 2.283 0m0 9.406a1.141 1.141 0 1 1-2.283 0 1.141 1.141 0 0 1 2.283 0m1.132 14.505a2.273 2.273 0 1 1-4.546 0 2.273 2.273 0 0 1 4.546 0Zm0 10.169a2.273 2.273 0 1 1-4.546 0 2.273 2.273 0 0 1 4.546 0Zm0 10.17a2.273 2.273 0 1 1-4.546 0 2.273 2.273 0 0 1 4.546 0m0 10.169a2.273 2.273 0 1 1-4.546.001 2.273 2.273 0 0 1 4.546 0ZM37.762 5.623a1.141 1.141 0 1 1-2.283 0 1.141 1.141 0 0 1 2.283 0m0 9.415a1.141 1.141 0 1 1-1.141-1.14 1.133 1.133 0 0 1 1.14 1.14m.001 9.425a1.141 1.141 0 1 1-2.283 0 1.141 1.141 0 0 1 2.283 0m-.001 9.397a1.141 1.141 0 1 1-1.178-1.114 1.14 1.14 0 0 1 1.142 1.14m5.485 7.336a2.088 2.088 0 1 1-4.177 0 2.088 2.088 0 0 1 4.177 0m0 10.17a2.089 2.089 0 1 1-4.178 0 2.089 2.089 0 0 1 4.178 0m0 10.169a2.089 2.089 0 1 1-4.178 0 2.089 2.089 0 0 1 4.178 0M42.106 3.194a.92.92 0 1 1-1.841 0 .92.92 0 0 1 1.84 0Zm.156 9.415a1.14 1.14 0 1 1-2.282 0 1.14 1.14 0 0 1 2.282 0m0 9.415a1.141 1.141 0 1 1-2.283 0 1.141 1.141 0 0 1 2.283 0m0 9.406a1.14 1.14 0 1 1-2.282 0 1.14 1.14 0 0 1 2.282 0m.948 14.881a2.09 2.09 0 1 1-4.18 0 2.09 2.09 0 0 1 4.18 0m0 10.17a2.088 2.088 0 1 1-4.177 0 2.088 2.088 0 0 1 4.177 0m0 10.169a2.089 2.089 0 1 1-4.178.001 2.089 2.089 0 0 1 4.178 0M42.106 76.82a.92.92 0 1 1-1.842 0 .92.92 0 0 1 1.842 0Zm.156-68.924a1.141 1.141 0 1 1-2.283 0 1.141 1.141 0 0 1 2.283 0m0 9.415a1.142 1.142 0 1 1-2.283 0 1.142 1.142 0 0 1 2.283 0m0 9.416a1.141 1.141 0 1 1-2.283 0 1.141 1.141 0 0 1 2.283 0m1.132 9.415a2.273 2.273 0 1 1-4.546 0 2.273 2.273 0 0 1 4.546 0Zm-9.185 5.08a2.088 2.088 0 1 1-4.177 0 2.088 2.088 0 0 1 4.177 0m0 10.17a2.089 2.089 0 1 1-4.178 0 2.089 2.089 0 0 1 4.178 0m0 10.169a2.089 2.089 0 1 1-4.178 0 2.089 2.089 0 0 1 4.178 0m-.948-48.952a1.14 1.14 0 1 1-2.282 0 1.14 1.14 0 0 1 2.282 0m0 9.415a1.141 1.141 0 1 1-2.282 0 1.141 1.141 0 0 1 2.282 0m0 9.406a1.14 1.14 0 1 1-2.282 0 1.14 1.14 0 0 1 2.282 0m.948 14.881a2.09 2.09 0 1 1-4.179 0 2.09 2.09 0 0 1 4.179 0m0 10.17a2.088 2.088 0 1 1-4.177 0 2.088 2.088 0 0 1 4.177 0m0 10.169a2.089 2.089 0 1 1-4.178.001 2.089 2.089 0 0 1 4.178 0M33.068 76.82a.92.92 0 1 1-1.84.001.92.92 0 0 1 1.84 0Zm.193-68.924a1.141 1.141 0 1 1-2.282 0 1.141 1.141 0 0 1 2.282 0m0 9.415a1.142 1.142 0 1 1-2.283 0 1.142 1.142 0 0 1 2.283 0m0 9.416a1.141 1.141 0 1 1-2.282 0 1.141 1.141 0 0 1 2.282 0m1.141 9.415a2.273 2.273 0 1 1-4.546 0 2.273 2.273 0 0 1 4.546 0m13.115 7.694a1.896 1.896 0 1 1-3.79 0 1.896 1.896 0 0 1 3.79 0m0 10.169a1.896 1.896 0 1 1-3.79 0 1.896 1.896 0 0 1 3.79 0m0 10.17a1.895 1.895 0 1 1-3.79 0 1.895 1.895 0 0 1 3.79 0m-.947 10.17a.92.92 0 1 1-1.84 0 .92.92 0 0 1 1.84 0Zm0-68.915a.92.92 0 1 1-1.84 0 .92.92 0 0 1 1.84 0Zm.192 9.415a1.141 1.141 0 1 1-2.282.018 1.141 1.141 0 0 1 2.282-.018Zm0 9.405a1.141 1.141 0 1 1-2.282.001 1.141 1.141 0 0 1 2.282 0m1.133 9.415a2.273 2.273 0 1 1-4.546 0 2.273 2.273 0 0 1 4.546 0m-.378 15.259a1.895 1.895 0 1 1-3.79 0 1.895 1.895 0 0 1 3.79 0m0 10.17a1.895 1.895 0 1 1-3.79 0 1.895 1.895 0 0 1 3.79 0m-.755 10.17a1.141 1.141 0 1 1-2.282 0 1.141 1.141 0 0 1 2.282 0m0-59.123a1.142 1.142 0 1 1-2.283 0 1.142 1.142 0 0 1 2.283 0m0 9.406a1.14 1.14 0 1 1-2.282 0 1.14 1.14 0 0 1 2.282 0m0 9.415a1.141 1.141 0 1 1-2.282 0 1.141 1.141 0 0 1 2.282 0m.939 9.792a2.09 2.09 0 1 1-4.18 0 2.09 2.09 0 0 1 4.18 0m-18.186 5.081a1.896 1.896 0 1 1-3.791 0 1.896 1.896 0 0 1 3.791 0Zm0 10.169a1.896 1.896 0 1 1-3.791 0 1.896 1.896 0 0 1 3.791 0Zm0 10.17a1.895 1.895 0 1 1-3.79 0 1.895 1.895 0 0 1 3.79 0Zm-.948 10.17a.92.92 0 1 1-1.84 0 .92.92 0 0 1 1.84 0Zm0-68.915a.92.92 0 1 1-1.84 0 .92.92 0 0 1 1.84 0Zm4.501-2.236a.92.92 0 1 1-1.84 0 .92.92 0 0 1 1.84 0ZM28.76 14.845a1.141 1.141 0 1 1-2.282.018 1.141 1.141 0 0 1 2.283-.018Zm0 9.405a1.141 1.141 0 1 1-2.282.001 1.141 1.141 0 0 1 2.283 0m1.141 9.415a2.273 2.273 0 1 1-4.546 0 2.273 2.273 0 0 1 4.546 0m-.387 15.259a1.895 1.895 0 1 1-3.79 0 1.895 1.895 0 0 1 3.79 0m0 10.17a1.895 1.895 0 1 1-3.79 0 1.895 1.895 0 0 1 3.79 0Zm-.755 10.17a1.141 1.141 0 1 1-2.282 0 1.141 1.141 0 0 1 2.283 0m-.001-59.123a1.142 1.142 0 1 1-2.282 0 1.142 1.142 0 0 1 2.283 0m-.001 9.406a1.14 1.14 0 1 1-2.281 0 1.14 1.14 0 0 1 2.282 0m-.001 9.415a1.141 1.141 0 1 1-2.282 0 1.141 1.141 0 0 1 2.283 0m.948 9.792a2.089 2.089 0 1 1-4.179 0 2.089 2.089 0 0 1 4.178 0m-4.684 2.725a1.896 1.896 0 1 1-3.792 0 1.896 1.896 0 0 1 3.792 0m0 5.07a1.896 1.896 0 1 1-3.792 0 1.896 1.896 0 0 1 3.792 0m-.193 5.109a1.703 1.703 0 1 1-3.406 0 1.703 1.703 0 0 1 3.406 0Zm-.571 10.169a1.14 1.14 0 1 1-2.282 0 1.14 1.14 0 0 1 2.282 0m-.184 10.17a.92.92 0 1 1-1.84 0 .92.92 0 0 1 1.84 0Zm.184-59.5a1.141 1.141 0 1 1-2.282 0 1.141 1.141 0 0 1 2.282 0m0 9.406a1.141 1.141 0 1 1-2.282 0 1.141 1.141 0 0 1 2.282 0m1.141 9.416a2.273 2.273 0 1 1-4.546 0 2.273 2.273 0 0 1 4.546 0m-.57 25.419a1.703 1.703 0 1 1-3.405 0 1.703 1.703 0 0 1 3.405 0m-.571 10.17a1.141 1.141 0 1 1-1.141-1.142 1.13 1.13 0 0 1 1.141 1.142m-.184-59.123a.92.92 0 1 1-1.84 0 .92.92 0 0 1 1.84 0Zm.184 9.415a1.14 1.14 0 1 1-2.282 0 1.14 1.14 0 0 1 2.282 0m0 9.406a1.142 1.142 0 1 1-2.283 0 1.142 1.142 0 0 1 2.283 0Zm.948 9.82a2.089 2.089 0 1 1-4.178 0 2.089 2.089 0 0 1 4.178 0m26.809 5.053a1.895 1.895 0 1 1-3.79 0 1.895 1.895 0 0 1 3.79 0Zm0 5.07a1.895 1.895 0 1 1-3.79 0 1.895 1.895 0 0 1 3.79 0Zm-.193 5.109a1.703 1.703 0 1 1-3.405 0 1.703 1.703 0 0 1 3.405 0m-.571 10.169a1.14 1.14 0 1 1-2.281 0 1.14 1.14 0 0 1 2.281 0m-.183 10.17a.92.92 0 1 1-1.84 0 .92.92 0 0 1 1.84 0Zm.183-59.5a1.141 1.141 0 1 1-2.282 0 1.141 1.141 0 0 1 2.282 0m0 9.406a1.141 1.141 0 1 1-2.282 0 1.141 1.141 0 0 1 2.282 0m1.142 9.416a2.273 2.273 0 1 1-4.546 0 2.273 2.273 0 0 1 4.546 0Zm-.571 25.419a1.703 1.703 0 1 1-3.405 0 1.703 1.703 0 0 1 3.405 0m-.571 10.17a1.141 1.141 0 1 1-2.282 0 1.141 1.141 0 0 1 2.282 0M51.07 7.786a.92.92 0 1 1-1.84 0 .92.92 0 0 1 1.84 0Zm.183 9.415a1.14 1.14 0 1 1-2.281 0 1.14 1.14 0 0 1 2.281 0m0 9.406a1.142 1.142 0 1 1-2.283 0 1.142 1.142 0 0 1 2.283 0Zm.977 9.82a2.089 2.089 0 1 1-4.178 0 2.089 2.089 0 0 1 4.177 0Zm4.095 7.749a1.703 1.703 0 1 1-3.405 0 1.703 1.703 0 0 1 3.405 0Zm0 5.136a1.703 1.703 0 1 1-3.405 0 1.703 1.703 0 0 1 3.405 0Zm-.571 5.043a1.14 1.14 0 1 1-1.141-1.141 1.13 1.13 0 0 1 1.141 1.141Zm0 10.17a1.141 1.141 0 1 1-2.283.018 1.141 1.141 0 0 1 2.283-.018m0-49.717a1.141 1.141 0 1 1-2.282.018 1.141 1.141 0 0 1 2.282-.018m0 9.415a1.141 1.141 0 1 1-2.283 0 1.141 1.141 0 0 1 2.283 0Zm.948 9.784a2.088 2.088 0 1 1-4.177 0 2.088 2.088 0 0 1 4.177 0M73.204 19.41a1.519 1.519 0 1 1-3.038 0 1.519 1.519 0 0 1 3.038 0m-70.167 0a1.518 1.518 0 1 1-3.037 0 1.518 1.518 0 0 1 3.037 0m52.717 40.025a1.141 1.141 0 1 1-1.141-1.14 1.132 1.132 0 0 1 1.141 1.14Zm-.184 10.17a.92.92 0 1 1-1.84 0 .92.92 0 0 1 1.84 0Zm8.992-4.905a.92.92 0 1 1-1.842 0 .92.92 0 0 1 1.842 0ZM55.57 10.105a.92.92 0 1 1-1.84 0 .92.92 0 0 1 1.84 0Zm.184 9.406a1.141 1.141 0 1 1-1.141-1.141 1.13 1.13 0 0 1 1.141 1.141Zm1.141 9.415a2.273 2.273 0 1 1-4.546 0 2.273 2.273 0 0 1 4.546 0m-.377 10.17a1.895 1.895 0 1 1-3.79 0 1.895 1.895 0 0 1 3.79 0m4.307 2.734a1.712 1.712 0 1 1-3.424.017 1.712 1.712 0 0 1 3.424-.018M60.254 52a1.14 1.14 0 1 1-2.28.018 1.14 1.14 0 0 1 2.28-.019Zm.001 10.196a1.141 1.141 0 1 1-2.283 0 1.141 1.141 0 0 1 2.282 0m-.193-49.698a.92.92 0 1 1-1.84 0 .92.92 0 0 1 1.84 0Zm.194 9.369a1.141 1.141 0 1 1-2.283 0 1.141 1.141 0 0 1 2.282 0m.948 9.793a2.09 2.09 0 1 1-4.18 0 2.09 2.09 0 0 1 4.18 0m-.947 15.25a1.141 1.141 0 1 1-2.283 0 1.141 1.141 0 0 1 2.282 0m0 10.17a1.14 1.14 0 1 1-2.28.018 1.14 1.14 0 0 1 2.28-.018Zm-.193 10.178a.92.92 0 1 1-1.84 0 .92.92 0 0 1 1.84 0Zm.194-50.094a1.141 1.141 0 1 1-2.283 0 1.141 1.141 0 0 1 2.282 0m1.179 9.406a2.273 2.273 0 1 1-4.546 0 2.273 2.273 0 0 1 4.546 0m-.423 10.17a1.895 1.895 0 1 1-3.791 0 1.895 1.895 0 0 1 3.79 0ZM19.576 70.01a.92.92 0 1 1-1.841 0 .92.92 0 0 1 1.84 0Zm.947-30.914a1.895 1.895 0 1 1-3.79 0 1.895 1.895 0 0 1 3.79 0Zm-.763 20.339a1.141 1.141 0 1 1-1.142-1.14 1.133 1.133 0 0 1 1.142 1.14Zm-.184-49.33a.92.92 0 1 1-1.842 0 .92.92 0 0 1 1.842 0Zm.184 9.406a1.141 1.141 0 1 1-1.142-1.141 1.131 1.131 0 0 1 1.142 1.141Zm1.178 9.415a2.273 2.273 0 1 1-4.546 0 2.273 2.273 0 0 1 4.546 0m-.608 15.25a1.702 1.702 0 1 1-3.404 0 1.702 1.702 0 0 1 3.404 0Zm0 5.136a1.702 1.702 0 1 1-1.711-1.703 1.712 1.712 0 0 1 1.711 1.703m-.57 5.043a1.141 1.141 0 1 1-2.283 0 1.141 1.141 0 0 1 2.283 0m0 10.17a1.141 1.141 0 1 1-2.283.018 1.141 1.141 0 0 1 2.283-.018Zm0-49.717a1.141 1.141 0 1 1-2.283.018 1.141 1.141 0 0 1 2.283-.018Zm0 9.415a1.141 1.141 0 1 1-2.283 0 1.141 1.141 0 0 1 2.283 0Zm.947 9.784a2.088 2.088 0 1 1-4.177 0 2.088 2.088 0 0 1 4.177 0M15.83 41.83a1.703 1.703 0 1 1-1.703-1.722 1.712 1.712 0 0 1 1.703 1.703M15.26 52a1.142 1.142 0 1 1-2.284.017A1.142 1.142 0 0 1 15.26 52Zm0 10.196a1.141 1.141 0 1 1-2.283 0 1.141 1.141 0 0 1 2.283 0m-.185-49.698a.92.92 0 1 1-1.84 0 .92.92 0 0 1 1.84 0Zm.185 9.369a1.141 1.141 0 1 1-2.283 0 1.141 1.141 0 0 1 2.283 0m.947 9.793a2.089 2.089 0 1 1-4.178 0 2.089 2.089 0 0 1 4.178 0m-.947 15.25a1.141 1.141 0 1 1-2.283 0 1.141 1.141 0 0 1 2.283 0m0 10.17a1.142 1.142 0 1 1-2.284.018 1.142 1.142 0 0 1 2.284-.018Zm-.185 10.178a.92.92 0 1 1-1.84 0 .92.92 0 0 1 1.84 0Zm.185-50.094a1.141 1.141 0 1 1-2.283 0 1.141 1.141 0 0 1 2.283 0m1.14 9.406a2.273 2.273 0 1 1-4.546 0 2.273 2.273 0 0 1 4.546 0Zm-.377 10.17a1.895 1.895 0 1 1-3.79 0 1.895 1.895 0 0 1 3.79 0Zm53.233 5.467a1.14 1.14 0 1 1-2.282 0 1.14 1.14 0 0 1 2.282 0m0 10.169a1.142 1.142 0 1 1-1.141-1.14 1.133 1.133 0 0 1 1.14 1.14m-.193 10.17a.92.92 0 1 1-1.84 0 .92.92 0 0 1 1.84 0Zm1.325-40.679a2.273 2.273 0 1 1-4.545 0 2.273 2.273 0 0 1 4.545 0m-1.131 10.17a1.142 1.142 0 1 1-2.283 0 1.142 1.142 0 0 1 2.283 0m0 15.259a1.141 1.141 0 1 1-2.283 0 1.141 1.141 0 0 1 2.283 0m0 10.17a1.142 1.142 0 1 1-2.283 0 1.142 1.142 0 0 1 2.283 0m-.194-40.302a.92.92 0 1 1-1.84 0 .92.92 0 0 1 1.84 0Zm.194 19.963a1.141 1.141 0 1 1-2.283 0 1.141 1.141 0 0 1 2.283 0m-4.501 2.143a1.141 1.141 0 1 1-2.282 0 1.141 1.141 0 0 1 2.282 0m0 10.17a1.141 1.141 0 1 1-2.282.019 1.141 1.141 0 0 1 2.282-.018m0 10.169a1.142 1.142 0 1 1-2.283 0 1.142 1.142 0 0 1 2.283 0m0-40.301a1.141 1.141 0 1 1-2.282.018 1.141 1.141 0 0 1 2.282-.018m.948 9.755a2.089 2.089 0 1 1-4.178 0 2.089 2.089 0 0 1 4.178 0m-.948 15.296a1.141 1.141 0 1 1-2.282.018 1.141 1.141 0 0 1 2.282-.018m0 10.17a1.141 1.141 0 1 1-2.282 0 1.141 1.141 0 0 1 2.282 0m-.193-39.924a.92.92 0 1 1-1.842 0 .92.92 0 0 1 1.842 0Zm1.325 9.414a2.273 2.273 0 1 1-4.546.001 2.273 2.273 0 0 1 4.546 0M65.51 34.19a1.896 1.896 0 1 1-3.793 0 1.896 1.896 0 0 1 3.793 0ZM7.022 26.948a1.896 1.896 0 1 1-3.792 0 1.896 1.896 0 0 1 3.792 0m62.988 0a1.896 1.896 0 1 1-3.793 0 1.896 1.896 0 0 1 3.793 0M38.516 79.241a1.896 1.896 0 1 1-3.791 0 1.896 1.896 0 0 1 3.791 0Zm4.51-7.51a1.896 1.896 0 1 1-3.792 0 1.896 1.896 0 0 1 3.792 0Zm-9.01 0a1.896 1.896 0 1 1-3.792 0 1.896 1.896 0 0 1 3.792 0ZM6.267 37.127a1.141 1.141 0 1 1-2.282 0 1.141 1.141 0 0 1 2.282 0m0 10.169a1.141 1.141 0 1 1-2.282 0 1.141 1.141 0 0 1 2.282 0m0 10.17a1.142 1.142 0 1 1-2.283 0 1.142 1.142 0 0 1 2.283 0Zm-.193-40.302a.92.92 0 1 1-1.84 0 .92.92 0 0 1 1.84 0Zm.193 25.043a1.141 1.141 0 1 1-2.282 0 1.141 1.141 0 0 1 2.282 0m0 10.169a1.141 1.141 0 1 1-2.282 0 1.141 1.141 0 0 1 2.282 0m-.193 10.17a.92.92 0 1 1-1.84 0 .92.92 0 0 1 1.84 0ZM7.4 21.867a2.273 2.273 0 1 1-4.546 0 2.273 2.273 0 0 1 4.546 0m-1.133 10.17a1.142 1.142 0 1 1-2.283 0 1.142 1.142 0 0 1 2.283 0M73.26 45.05a.92.92 0 1 1-1.841 0 .92.92 0 0 1 1.84 0Zm0 10.17a.92.92 0 1 1-1.841 0 .92.92 0 0 1 1.84 0Zm0-30.509a.92.92 0 1 1-1.842 0 .92.92 0 0 1 1.841 0Zm0 10.161a.92.92 0 1 1-1.841 0 .92.92 0 0 1 1.84 0Zm0 15.258a.92.92 0 1 1-1.841 0 .92.92 0 0 1 1.84 0Zm0 10.17a.92.92 0 1 1-1.842 0 .92.92 0 0 1 1.841 0Zm0-30.509a.92.92 0 1 1-1.842 0 .92.92 0 0 1 1.841 0Zm0 10.17a.92.92 0 1 1-1.842 0 .92.92 0 0 1 1.841 0ZM1.896 45.05a.92.92 0 1 1-1.84 0 .92.92 0 0 1 1.84 0Zm0 10.17a.92.92 0 1 1-1.84 0 .92.92 0 0 1 1.84 0Zm0-30.509a.92.92 0 1 1-1.841 0 .92.92 0 0 1 1.841 0Zm0 10.161a.92.92 0 1 1-1.84 0 .92.92 0 0 1 1.84 0Zm0 15.258a.92.92 0 1 1-1.84.001.92.92 0 0 1 1.84 0Zm0 10.17a.92.92 0 1 1-1.84 0 .92.92 0 0 1 1.84 0Zm0-30.509a.92.92 0 1 1-1.841 0 .92.92 0 0 1 1.841 0Zm0 10.17a.92.92 0 1 1-1.841 0 .92.92 0 0 1 1.841 0Zm8.992-.691a1.141 1.141 0 1 1-2.282 0 1.141 1.141 0 0 1 2.282 0m0 10.17a1.141 1.141 0 1 1-2.283.019 1.141 1.141 0 0 1 2.283-.018Zm0 10.17a1.142 1.142 0 1 1-2.283 0 1.142 1.142 0 0 1 2.283 0Zm0-40.301a1.142 1.142 0 1 1-.705-1.049 1.134 1.134 0 0 1 .705 1.049Zm.948 9.755a2.089 2.089 0 1 1-4.178 0 2.089 2.089 0 0 1 4.178 0m-.948 15.296a1.141 1.141 0 1 1-2.283.018 1.141 1.141 0 0 1 2.283-.018m0 10.17a1.142 1.142 0 1 1-1.141-1.141 1.132 1.132 0 0 1 1.14 1.141Zm-.185 10.17a.92.92 0 1 1-1.84 0 .92.92 0 0 1 1.84 0Zm0-50.094a.92.92 0 1 1-1.84 0 .92.92 0 0 1 1.84 0Zm1.326 9.414a2.273 2.273 0 1 1-4.546 0 2.273 2.273 0 0 1 4.546 0Zm-.377 10.17a1.896 1.896 0 1 1-3.793 0 1.896 1.896 0 0 1 3.793 0Zm124.53 28.65V33.529a.923.923 0 0 1 .875-.874h6.184a.918.918 0 0 1 .875.874v29.313a.918.918 0 0 1-.875.874h-6.184a.918.918 0 0 1-.875-.874Zm33.317.875a.925.925 0 0 1-.745-.414l-11.56-18.48h-.101l.212 17.965a.921.921 0 0 1-.875.92h-5.844a.92.92 0 0 1-.92-.875V33.528a.922.922 0 0 1 .92-.874h5.522a.921.921 0 0 1 .746.414l11.743 19.106.083-.083-.331-18.554a.916.916 0 0 1 .874-.92h5.835a.922.922 0 0 1 .874.874v29.35a.922.922 0 0 1-.874.874h-5.559Zm-36.786-44.011c-3.415.479-8.348 1.74-11.431 7.667l-1.776 3.967-6.783 15.13a5.951 5.951 0 0 0-.368 1.095l-.267 1.123c-.086.411-.159.822-.221 1.233a40.834 40.834 0 0 0-.221-1.233l-.267-1.123a5.966 5.966 0 0 0-.368-1.095l-6.783-15.13-1.776-3.967c-3.092-5.918-8.025-7.188-11.43-7.666-.856-.12-3.47-.249-3.47-.249l5.338 11.872 14.56 32.295h8.89l14.532-32.304 5.338-11.872s-2.604.129-3.46.248m60.99 44.029h-9.976a.918.918 0 0 1-.875-.874V33.565a.923.923 0 0 1 .875-.875h9.406a31.323 31.323 0 0 1 4.012.221 17.03 17.03 0 0 1 3.626.856 12.673 12.673 0 0 1 6.056 4.712 16.024 16.024 0 0 1 2.862 9.645c0 10.4-5.328 15.6-15.986 15.6Zm6.268-21.618a6.931 6.931 0 0 0-5.752-2.458h-2.568a.92.92 0 0 0-.92.874v15.36a.92.92 0 0 0 .92.874h2.522c2.595.001 4.534-.79 5.816-2.373a11.42 11.42 0 0 0 0-12.287m26.488 3.728a.921.921 0 0 1-.801.865 7.095 7.095 0 0 0-3.083.773 3.727 3.727 0 0 0-1.601 3.46v11.965a.923.923 0 0 1-.875.874h-5.209a.922.922 0 0 1-.874-.874V41.323a.922.922 0 0 1 .874-.874h4.786a.922.922 0 0 1 .874.874v1.602h.101a5.737 5.737 0 0 1 4.86-3.23.92.92 0 0 1 .92.873l.028 5.256Z" fill="#fff"/></svg>
