<svg id="b656c22d-133f-49c2-96ea-1128d17f02dd" data-name="Layer 1" xmlns="http://www.w3.org/2000/svg" xmlns:xlink="http://www.w3.org/1999/xlink" viewBox="0 0 127.56 79.61"><defs><style>.a1d4e8db-9c12-400c-b29f-9c8bc9fef8f1{fill:#fff;}.fffc1e33-b553-4adb-b650-b8491bebfff4{fill:url(#bc3bca88-71cc-46af-8b73-565088baeb46);}</style><linearGradient id="bc3bca88-71cc-46af-8b73-565088baeb46" x1="-867.95" y1="565.99" x2="-868.34" y2="566.38" gradientTransform="matrix(34.29, 0, 0, -35.02, 29842.4, 19847.97)" gradientUnits="userSpaceOnUse"><stop offset="0" stop-color="#b57b31"/><stop offset="1" stop-color="#f6bc2c"/></linearGradient></defs><path class="a1d4e8db-9c12-400c-b29f-9c8bc9fef8f1" d="M3.57,48.38c-.64-1.55-1.12-1.85-2.14-2.14a4.4,4.4,0,0,0-1.09-.11c-.26,0-.34-.08-.34-.25s.31-.25.73-.25c1.49,0,3.1.08,4.08.08.7,0,2.05-.08,3.46-.08.34,0,.65,0,.65.25s-.17.25-.42.25a2,2,0,0,0-1.1.2.67.67,0,0,0-.28.59,8.44,8.44,0,0,0,.64,2.16L12.6,61.86h.11c1.21-3.1,4.87-12.16,5.55-14a3.51,3.51,0,0,0,.25-1,.54.54,0,0,0-.36-.54A3.85,3.85,0,0,0,17,46.13c-.25,0-.48,0-.48-.22s.25-.28.79-.28c1.41,0,2.59.08,3,.08s1.8-.08,2.65-.08c.36,0,.59,0,.59.25s-.17.25-.45.25a2.44,2.44,0,0,0-1.38.34c-.37.25-.79.73-1.55,2.53-1.09,2.65-1.86,4.16-3.37,7.62C15,60.73,13.64,63.8,13,65.2c-.74,1.63-.91,2.09-1.3,2.09s-.53-.4-1.07-1.72Zm23.24,7.34c0-3.63,0-4.3,0-5.06s-.31-1.1-.85-1.27a3.36,3.36,0,0,0-.9-.11c-.25,0-.39-.05-.39-.28s.2-.2.59-.2c.93,0,2.62.06,3.32.06s2.22-.06,3.18-.06c.31,0,.51.06.51.2s-.14.28-.4.28a3.23,3.23,0,0,0-.73.09c-.67.11-.87.45-.93,1.29s-.05,1.43-.05,5.06v4.22c0,2.31,0,4.22.11,5.24.08.64.25,1,1,1.12a8.73,8.73,0,0,0,1.27.09c.28,0,.39.14.39.25s-.19.25-.48.25c-1.63,0-3.31-.08-4-.08s-2.25.08-3.24.08c-.3,0-.47-.08-.47-.25s.08-.25.39-.25A3.36,3.36,0,0,0,26,66.3c.51-.11.65-.45.73-1.15.12-1,.12-2.9.12-5.21Zm14.37,7.91c.06,1.86.37,2.42.84,2.59a4.23,4.23,0,0,0,1.3.17c.28,0,.42.11.42.25s-.23.25-.56.25c-1.61,0-2.76-.08-3.21-.08-.23,0-1.41.08-2.67.08-.34,0-.57,0-.57-.25s.17-.25.4-.25a4.69,4.69,0,0,0,1.12-.12c.65-.17.74-.81.76-2.89l.23-14.18c0-.48.17-.82.42-.82s.65.37,1.07.79,4,4.11,7.62,7.62c1.69,1.66,5,5,5.35,5.38h.11l-.25-10.64c0-1.46-.26-1.88-.85-2.11a4.12,4.12,0,0,0-1.29-.14c-.31,0-.39-.11-.39-.25s.25-.23.61-.23c1.3,0,2.62.06,3.15.06.29,0,1.21-.06,2.42-.06.34,0,.57,0,.57.23s-.15.25-.43.25a2.38,2.38,0,0,0-.76.09c-.67.19-.87.62-.9,2l-.28,15.07c0,.54-.19.76-.39.76a1.47,1.47,0,0,1-1-.5c-1.55-1.44-4.64-4.39-7.23-6.89s-5.32-5.49-5.8-5.91H40.9l.28,9.76ZM66.3,45.74c.08-.48.25-.73.48-.73s.39.14.75.87l7.68,15.86,7.65-16.06c.23-.45.37-.67.63-.67s.42.28.5.87l2.56,17.38c.25,1.78.54,2.59,1.38,2.84a5.52,5.52,0,0,0,1.74.29c.26,0,.45,0,.45.19s-.33.31-.73.31c-.7,0-4.58-.08-5.71-.17-.65,0-.81-.14-.81-.31s.11-.22.31-.31.25-.42.14-1.21L81.63,52.52h-.11L75.38,65.29c-.64,1.32-.78,1.57-1,1.57s-.53-.56-1-1.4c-.68-1.3-2.9-5.6-3.24-6.39-.25-.59-1.94-4.13-2.92-6.24h-.12L65.62,64a12.77,12.77,0,0,0-.08,1.33c0,.53.36.78.84.9a5.61,5.61,0,0,0,1.18.14c.23,0,.42,0,.42.19s-.25.31-.67.31c-1.18,0-2.45-.08-3-.08s-1.89.08-2.79.08c-.28,0-.51,0-.51-.31s.17-.19.45-.19a3.41,3.41,0,0,0,.85-.09c.79-.17,1-1.26,1.15-2.22L66.3,45.74Zm29.11,10c0-3.63,0-4.3,0-5.06s-.28-1.07-1.07-1.29a4.29,4.29,0,0,0-1-.09c-.26,0-.42-.08-.42-.25s.19-.23.56-.23c1.29,0,2.87.06,3.57.06s6.27,0,6.75,0,.84-.11,1-.14a2.43,2.43,0,0,1,.4-.11c.14,0,.17.11.17.22a9.42,9.42,0,0,0-.2,1.55c0,.25-.09,1.29-.14,1.57,0,.12-.09.4-.28.4s-.2-.11-.2-.31a2.25,2.25,0,0,0-.17-.87c-.2-.43-.39-.76-1.63-.87-.42-.06-3.38-.12-3.88-.12-.12,0-.17.09-.17.23v5.9c0,.15,0,.26.17.26.56,0,3.77,0,4.33-.06s1-.11,1.18-.36.28-.31.39-.31.2.11.2.25-.06.53-.2,1.74c0,.54-.09,1.07-.11,1.61,0,.19,0,.53-.25.53s-.23-.08-.23-.2,0-.56-.08-.87c-.14-.48-.45-.84-1.38-.93-.45,0-3.26-.11-3.88-.11-.11,0-.14.11-.14.26V60c0,.81,0,2.84,0,3.54,0,1.63.81,2,3.34,2a6.74,6.74,0,0,0,2.34-.31c.62-.28.9-.79,1.07-1.77,0-.26.11-.37.28-.37s.23.31.23.57a16.29,16.29,0,0,1-.34,2.64c-.17.62-.4.62-1.32.62-1.86,0-3.35,0-4.56-.09s-2.14,0-2.87,0c-.28,0-.82,0-1.41,0s-1.21,0-1.71,0c-.31,0-.48-.08-.48-.25s.08-.25.39-.25a3.36,3.36,0,0,0,.87-.09c.51-.11.65-.56.74-1.26.11-1,.11-2.9.11-5.09V55.73Zm18,8.89a9.24,9.24,0,0,1-.2-13.61c1.8-1.58,4.17-2.53,7.85-2.53a25.45,25.45,0,0,1,3.6.25c.93.14,1.74.31,2.48.39.28,0,.36.14.36.28s0,.48-.11,1.33-.06,2.11-.08,2.59c0,.33-.12.59-.34.59s-.25-.2-.25-.51a3.41,3.41,0,0,0-1-2.22A7,7,0,0,0,121,49.76c-2.17,0-3.55.39-4.67,1.35C114.48,52.69,114,55,114,57.33a8,8,0,0,0,7.71,8.38c2.19,0,3.4-.17,4.39-1.27a3.77,3.77,0,0,0,.84-1.6c.06-.37.11-.48.31-.48s.28.23.28.42A21.18,21.18,0,0,1,127,66a.85.85,0,0,1-.65.71,14.67,14.67,0,0,1-4.47.53c-3.38,0-6.25-.7-8.5-2.59M13,79.77h1v-6H13Zm2.3,0V73.58L19,77.22a7,7,0,0,1,.64.72V73.82h.87V80l-3.77-3.7a5.18,5.18,0,0,1-.57-.67v4.14Zm8.43-5.13v5.13h-.94V74.64H21.27v-.82h4v.82ZM26,79.77v-6h3.25v.82H27v1.49h2.3V77H27V78.9h2.3v.87Zm6-3.42h.17a2.48,2.48,0,0,0,.87-.1.71.71,0,0,0,.38-.71.77.77,0,0,0-.37-.75,1.93,1.93,0,0,0-.88-.14H32Zm-.06.76v2.66H31v-6h1.32a2.4,2.4,0,0,1,1.45.33,1.57,1.57,0,0,1,.57,1.31A1.41,1.41,0,0,1,33,77.06l2,2.71H34L32,77.11Zm3.68,2.66V73.58l3.7,3.64a6,6,0,0,1,.63.72V73.82h.88V80L37,76.3a5.1,5.1,0,0,1-.56-.67v4.14Zm7.78-2.34H45l-.59-1.36a4,4,0,0,1-.22-.67,4,4,0,0,1-.21.67l-.6,1.36ZM46,79.77l-.66-1.53H43l-.68,1.53h-1l2.82-6.19L47,79.77Zm3.25-5.13v5.13h-.94V74.64H46.77v-.82h4v.82Zm2.29,5.13h1v-6h-1Zm7.08-3A2.2,2.2,0,0,0,58,75.23a2.06,2.06,0,0,0-3,0,2.24,2.24,0,0,0-.62,1.59A2.18,2.18,0,0,0,55,78.38a2,2,0,0,0,1.51.65,2,2,0,0,0,1.5-.65,2.22,2.22,0,0,0,.62-1.57m1,0a3,3,0,0,1-.91,2.2,3.12,3.12,0,1,1-2.2-5.32,3.11,3.11,0,0,1,3.11,3.12m.55,3V73.58l3.7,3.64a7,7,0,0,1,.64.72V73.82h.87V80l-3.77-3.7a4.42,4.42,0,0,1-.56-.67v4.14ZM68,77.43h1.62L69,76.07a5.25,5.25,0,0,1-.22-.67,3.73,3.73,0,0,1-.21.67L68,77.43Zm2.62,2.34-.67-1.53h-2.3l-.68,1.53h-1l2.82-6.19,2.82,6.19Zm1.81,0v-6h1V78.9h2.12v.87Zm6.29,0v-6h.95V76H82.5V73.82h.94v6H82.5V76.88H79.63v2.89Zm10.88-3a2.2,2.2,0,0,0-.62-1.58,2.06,2.06,0,0,0-3,0,2.32,2.32,0,0,0,0,3.16,2,2,0,0,0,1.51.65,2,2,0,0,0,1.5-.65,2.18,2.18,0,0,0,.62-1.57m1,0a3,3,0,0,1-.91,2.2,3.12,3.12,0,1,1-2.2-5.32,3.11,3.11,0,0,1,3.11,3.12m.22,1.77.76-.36a1.05,1.05,0,0,0,1.13.82.92.92,0,0,0,.66-.24.83.83,0,0,0,.26-.65c0-.34-.29-.65-.86-.93l-.18-.09a4.52,4.52,0,0,1-1.09-.68,1.45,1.45,0,0,1-.51-1.14,1.51,1.51,0,0,1,.51-1.2,1.81,1.81,0,0,1,1.24-.43,1.56,1.56,0,0,1,1.68,1l-.74.39a1,1,0,0,0-.87-.54.94.94,0,0,0-.59.18.7.7,0,0,0-.24.56c0,.36.33.7,1,1l.12.06a4.1,4.1,0,0,1,1,.65,1.52,1.52,0,0,1,.46,1.11A1.73,1.73,0,0,1,94,79.45a2,2,0,0,1-1.38.48,1.67,1.67,0,0,1-1.85-1.35m5.75-2.27h.25a2.51,2.51,0,0,0,.88-.1.66.66,0,0,0,.43-.7.74.74,0,0,0-.41-.74,2.41,2.41,0,0,0-.9-.12h-.25Zm0,.79v2.67h-.89v-6H97a2.58,2.58,0,0,1,1.46.3,1.82,1.82,0,0,1,0,2.68,2.58,2.58,0,0,1-1.46.3Zm3.47,2.67h.94v-6h-.94Zm4.18-5.13v5.13h-.94V74.64h-1.55v-.82h4v.82ZM107,77.43h1.62l-.6-1.36a5.2,5.2,0,0,1-.21-.67,6.56,6.56,0,0,1-.21.67l-.6,1.36Zm2.62,2.34L109,78.24h-2.31L106,79.77h-1l2.83-6.19,2.82,6.19Zm1.82,0v-6h.94V78.9h2.12v.87Z" transform="translate(0 -0.39)"/><path class="fffc1e33-b553-4adb-b650-b8491bebfff4" d="M78.74.43c-9.27,1.18-18.6,4.36-19.23,13.69-.29,4.43,1.06,7.76,2.58,11A20.51,20.51,0,0,0,45,19c4.71,1.35,10.27,3.94,13.26,7.35.64.73,1.56,2,1.34,3.06-.36,1.8-3.64,1.43-5.63,1.52,4.12,1.67,8.73,4.68,14.6,4.49,2.94-.1,5.1-1.9,4.87-5.25C73,24.14,68.66,19,68.2,12.21,67.69,4.65,72.87,1.81,78.75.52A5.08,5.08,0,0,0,79.3.39h0l-.55,0" transform="translate(0 -0.39)"/></svg>