<svg xmlns="http://www.w3.org/2000/svg" viewBox="0 0 128 80"><defs><linearGradient x1="85.389%" y1="86.278%" x2="46.352%" y2="46.414%" id="a"><stop stop-color="#B57B31" offset="0%"/><stop stop-color="#F6BC2C" offset="100%"/></linearGradient></defs><g fill-rule="nonzero" fill="none"><path d="M3.573 48.382c-.647-1.547-1.125-1.857-2.138-2.139-.422-.112-.872-.112-1.097-.112-.253 0-.338-.085-.338-.253 0-.226.31-.253.732-.253 1.491 0 3.094.084 4.08.084.702 0 2.052-.084 3.46-.084.336 0 .646.056.646.253s-.169.253-.422.253c-.45 0-.872.028-1.098.197-.197.14-.28.337-.28.591 0 .365.252 1.153.646 2.166l4.84 12.771h.111c1.21-3.094 4.867-12.152 5.542-14.009.141-.366.253-.788.253-1.04 0-.226-.112-.45-.365-.536-.338-.112-.76-.14-1.126-.14-.253 0-.478-.028-.478-.225 0-.225.253-.28.788-.28 1.406 0 2.588.083 2.954.083.478 0 1.8-.084 2.644-.084.366 0 .591.056.591.253s-.169.253-.45.253c-.282 0-.872 0-1.379.337-.366.254-.787.732-1.547 2.533-1.097 2.644-1.857 4.163-3.376 7.623-1.8 4.107-3.122 7.173-3.74 8.58-.733 1.631-.902 2.082-1.295 2.082-.366 0-.535-.394-1.069-1.716L3.573 48.382ZM26.806 55.724c0-3.63 0-4.305-.028-5.064-.056-.816-.31-1.097-.844-1.266a3.174 3.174 0 0 0-.9-.112c-.253 0-.394-.057-.394-.28 0-.142.197-.198.591-.198.928 0 2.616.056 3.32.056.618 0 2.222-.056 3.178-.056.31 0 .506.056.506.197 0 .224-.14.281-.394.281-.253 0-.45.028-.73.084-.676.113-.873.45-.929 1.294-.056.76-.056 1.434-.056 5.064v4.22c0 2.306 0 4.22.112 5.232.085.646.253 1.013.985 1.125.337.056.9.085 1.266.085.281 0 .393.14.393.252 0 .17-.197.254-.478.254-1.63 0-3.319-.085-3.995-.085-.562 0-2.25.085-3.235.085-.309 0-.478-.085-.478-.254 0-.112.085-.252.394-.252.366 0 .647-.029.872-.085.506-.112.647-.45.732-1.154.112-.984.112-2.897.112-5.203v-4.22ZM41.18 63.629c.056 1.856.365 2.42.843 2.588.422.14.9.169 1.294.169.282 0 .422.112.422.253 0 .197-.224.253-.563.253-1.602 0-2.757-.084-3.207-.084-.224 0-1.406.084-2.672.084-.337 0-.563-.027-.563-.253 0-.141.17-.253.395-.253.337 0 .788-.028 1.125-.113.647-.17.732-.815.76-2.897l.224-14.178c0-.478.17-.816.422-.816.31 0 .648.366 1.07.788.309.309 4.023 4.107 7.623 7.623 1.688 1.66 4.98 5.035 5.344 5.373h.113l-.254-10.633c-.027-1.464-.252-1.885-.843-2.11-.366-.141-.956-.141-1.294-.141-.31 0-.393-.112-.393-.253 0-.197.252-.225.618-.225 1.294 0 2.617.057 3.15.057.283 0 1.21-.057 2.42-.057.337 0 .563.028.563.225 0 .14-.142.253-.422.253-.253 0-.45 0-.76.085-.675.197-.871.618-.9 1.969l-.282 15.078c0 .535-.196.759-.393.759-.423 0-.76-.253-1.014-.506-1.545-1.434-4.64-4.388-7.228-6.892-2.701-2.588-5.317-5.486-5.795-5.908h-.084l.28 9.762ZM66.297 45.738c.085-.478.253-.732.479-.732.224 0 .393.14.759.873l7.68 15.865 7.65-16.062c.227-.451.367-.676.62-.676.254 0 .422.282.506.873l2.56 17.385c.254 1.772.535 2.588 1.379 2.84.816.254 1.379.282 1.744.282.253 0 .45.028.45.196 0 .226-.337.31-.731.31-.703 0-4.586-.084-5.711-.168-.647-.057-.816-.142-.816-.31 0-.141.113-.225.31-.31.169-.055.253-.422.14-1.21l-1.687-12.377h-.113l-6.132 12.77c-.647 1.324-.788 1.577-1.041 1.577-.253 0-.535-.563-.985-1.406-.675-1.294-2.897-5.6-3.235-6.386-.253-.591-1.941-4.136-2.926-6.245h-.112l-1.463 11.196c-.056.506-.084.872-.084 1.322 0 .534.365.788.844.9.506.113.9.14 1.18.14.226 0 .423.057.423.197 0 .254-.253.31-.675.31-1.182 0-2.448-.084-2.954-.084-.534 0-1.884.084-2.785.084-.281 0-.506-.056-.506-.31 0-.14.168-.196.45-.196.225 0 .422 0 .844-.085.788-.168 1.012-1.265 1.153-2.222l2.785-18.341ZM95.408 55.724c0-3.63 0-4.305-.028-5.064-.056-.816-.28-1.069-1.069-1.294-.197-.056-.619-.084-.985-.084-.253 0-.42-.084-.42-.254 0-.168.195-.224.561-.224 1.294 0 2.87.056 3.573.056.787 0 6.273.028 6.751 0 .45-.029.844-.113 1.041-.14.141-.029.281-.113.394-.113.14 0 .17.112.17.224 0 .17-.142.451-.199 1.548-.027.253-.084 1.294-.14 1.575-.028.113-.084.394-.28.394-.17 0-.198-.113-.198-.31 0-.168-.028-.59-.169-.87-.197-.424-.394-.762-1.632-.873-.42-.057-3.375-.113-3.882-.113-.112 0-.168.084-.168.224v5.908c0 .141.028.254.168.254.563 0 3.77 0 4.332-.057.591-.056.957-.112 1.182-.365.197-.17.282-.31.394-.31.112 0 .197.113.197.253 0 .141-.056.535-.197 1.745a24.549 24.549 0 0 0-.112 1.603c0 .197-.029.534-.254.534-.169 0-.225-.084-.225-.197-.028-.252-.028-.562-.084-.872-.14-.478-.45-.843-1.379-.928-.45-.056-3.263-.113-3.882-.113-.112 0-.14.113-.14.254v1.913c0 .816-.029 2.841 0 3.544.056 1.632.815 1.998 3.347 1.998.647 0 1.688-.029 2.335-.31.62-.28.9-.788 1.07-1.772.055-.254.112-.365.28-.365.197 0 .226.308.226.562 0 .535-.197 2.166-.338 2.644-.169.62-.394.62-1.322.62-1.857 0-3.348-.03-4.557-.085-1.21-.029-2.138-.057-2.87-.057-.28 0-.816.028-1.406.028-.59.03-1.21.057-1.717.057-.309 0-.478-.085-.478-.254 0-.112.085-.252.394-.252.366 0 .647-.029.872-.085.506-.112.647-.563.732-1.266.112-1.013.112-2.898.112-5.09v-4.22ZM113.41 64.613c-2.447-2.053-3.094-4.754-3.094-7.06 0-1.632.534-4.445 2.897-6.555 1.8-1.575 4.163-2.532 7.849-2.532 1.547 0 2.475.112 3.6.254.927.14 1.743.309 2.475.393.281.029.367.14.367.28 0 .198-.058.479-.114 1.324-.055.787-.055 2.11-.084 2.588-.028.337-.112.59-.337.59-.197 0-.253-.196-.253-.506a3.366 3.366 0 0 0-.957-2.222c-.844-.815-2.504-1.407-4.782-1.407-2.166 0-3.546.395-4.67 1.35-1.829 1.576-2.279 3.883-2.279 6.217 0 5.683 4.388 8.384 7.709 8.384 2.194 0 3.403-.17 4.388-1.266.421-.478.76-1.154.844-1.604.056-.366.112-.478.309-.478.168 0 .281.225.281.422 0 .282-.281 2.363-.534 3.178-.113.423-.226.535-.647.704-.984.393-2.87.535-4.472.535-3.377 0-6.247-.704-8.497-2.59M13.028 79.768h.948v-5.95h-.948zM15.332 79.768V73.58l3.702 3.638c.196.193.407.433.633.723V73.82h.875V80l-3.776-3.702a4.712 4.712 0 0 1-.562-.666v4.136h-.872ZM23.763 74.639v5.129h-.948v-5.129h-1.548v-.821h4.036v.821zM26.032 79.768v-5.949h3.252v.82H26.98v1.492h2.304v.849H26.98v1.922h2.304v.866zM31.99 76.354h.17c.418 0 .706-.035.865-.105.255-.114.382-.35.382-.708 0-.373-.124-.626-.37-.755-.173-.092-.465-.137-.876-.137h-.171v1.705Zm-.055.752v2.662h-.893v-5.95h1.323c.684 0 1.167.112 1.448.334.377.298.565.734.565 1.304 0 .962-.446 1.496-1.336 1.605l2.005 2.707h-1.071l-1.938-2.662h-.103ZM35.608 79.768V73.58l3.701 3.638c.196.193.407.433.633.723V73.82h.876V80l-3.777-3.702a4.78 4.78 0 0 1-.562-.666v4.136h-.871ZM43.39 77.431h1.622l-.596-1.358a4.949 4.949 0 0 1-.218-.674 4.572 4.572 0 0 1-.21.675l-.598 1.358Zm2.62 2.338-.663-1.532H43.04l-.677 1.532h-.997l2.822-6.186 2.819 6.186h-.998ZM49.264 74.639v5.129h-.948v-5.129h-1.548v-.821h4.036v.821zM51.548 79.768h.948v-5.95h-.948zM58.633 76.806a2.21 2.21 0 0 0-.62-1.577 2 2 0 0 0-1.506-.654c-.588 0-1.09.216-1.506.648-.415.433-.623.96-.623 1.583 0 .615.207 1.139.621 1.572.414.434.916.65 1.508.65.585 0 1.084-.216 1.501-.65.417-.433.625-.957.625-1.572m.987 0c0 .87-.304 1.605-.91 2.206-.617.61-1.35.915-2.203.915a3.007 3.007 0 0 1-2.205-.911 3.007 3.007 0 0 1-.91-2.21c0-.872.302-1.61.907-2.214.604-.605 1.34-.906 2.208-.906.865 0 1.601.303 2.206.91.605.606.907 1.343.907 2.21M60.174 79.768V73.58l3.7 3.638c.197.193.409.433.634.723V73.82h.876V80l-3.777-3.702a4.78 4.78 0 0 1-.562-.666v4.136h-.871ZM67.955 77.431h1.622l-.597-1.358a5.25 5.25 0 0 1-.218-.674 4.36 4.36 0 0 1-.209.675l-.598 1.358Zm2.621 2.338-.663-1.532h-2.307l-.677 1.532h-.997l2.822-6.186 2.818 6.186h-.996ZM72.393 79.768v-5.949h.947v5.083h2.117v.866zM78.685 79.768v-5.949h.947v2.194h2.866v-2.194h.947v5.949h-.947v-2.89h-2.866v2.89zM89.563 76.806a2.21 2.21 0 0 0-.62-1.577 1.998 1.998 0 0 0-1.506-.654c-.588 0-1.09.216-1.506.648-.415.433-.622.96-.622 1.583 0 .615.206 1.139.62 1.572a2.01 2.01 0 0 0 1.508.65c.585 0 1.085-.216 1.501-.65.417-.433.625-.957.625-1.572m.987 0c0 .87-.304 1.605-.912 2.206-.615.61-1.348.915-2.2.915a3.005 3.005 0 0 1-2.205-.911 3.004 3.004 0 0 1-.912-2.21c0-.872.302-1.61.908-2.214.604-.605 1.341-.906 2.208-.906.866 0 1.6.303 2.206.91.605.606.907 1.343.907 2.21M90.773 78.578l.757-.358c.146.544.521.817 1.125.817.274 0 .496-.078.665-.233.17-.156.255-.372.255-.65 0-.345-.284-.657-.852-.933l-.182-.091c-.523-.257-.888-.483-1.095-.678a1.489 1.489 0 0 1-.509-1.137c0-.507.17-.91.513-1.208.321-.28.733-.422 1.237-.422.889 0 1.449.328 1.681.983l-.741.39c-.225-.36-.513-.54-.864-.54-.241 0-.438.063-.589.187-.162.133-.242.319-.242.56 0 .359.328.692.986 1l.119.057c.492.23.842.448 1.052.65.305.299.457.67.457 1.113 0 .583-.181 1.038-.545 1.366-.348.317-.809.475-1.385.475-1.025 0-1.639-.45-1.843-1.348M96.524 76.306h.243c.43 0 .726-.031.887-.093.284-.112.426-.345.426-.7 0-.37-.137-.616-.413-.742-.179-.082-.479-.123-.9-.123h-.243v1.658Zm-.056.796v2.666h-.89v-5.95h1.432c.7 0 1.187.103 1.46.306.391.29.586.735.586 1.334 0 .608-.195 1.055-.585 1.344-.272.2-.759.3-1.458.3h-.545ZM99.936 79.768h.948v-5.95h-.948zM104.122 74.639v5.129h-.947v-5.129h-1.548v-.821h4.036v.821zM107.03 77.431h1.621l-.597-1.358a5.25 5.25 0 0 1-.218-.674 4.342 4.342 0 0 1-.21.675l-.597 1.358Zm2.62 2.338-.664-1.532h-2.306l-.677 1.532h-.998l2.823-6.186 2.818 6.186h-.997ZM111.466 79.768v-5.949h.947v5.083h2.118v.866z" fill="#286BA6"/><path d="M78.736.431c-9.263 1.181-18.595 4.355-19.221 13.687-.297 4.434 1.052 7.764 2.577 10.973-3.823-3.803-9.341-6.848-17.083-6.107 4.711 1.35 10.276 3.932 13.265 7.348.632.724 1.553 1.977 1.334 3.054-.359 1.802-3.641 1.434-5.628 1.527 4.122 1.67 8.726 4.678 14.599 4.484 2.94-.096 5.098-1.901 4.867-5.247-.407-6.012-4.79-11.147-5.247-17.941C67.69 4.65 72.867 1.808 78.746.523c.031-.008.617-.122.551-.136l-.012-.001c-.081 0-.49.037-.549.045" fill="url(#a)"/></g></svg>
